<?xml version="1.0" encoding="iso-8859-1"?>
<!-- Generator: Adobe Illustrator 19.0.0, SVG Export Plug-In . SVG Version: 6.00 Build 0)  -->
<svg version="1.1" id="Layer_1" xmlns="http://www.w3.org/2000/svg" xmlns:xlink="http://www.w3.org/1999/xlink" x="0px" y="0px"
	 viewBox="0 0 330 330" style="enable-background:new 0 0 330 330;" xml:space="preserve">
<g id="XMLID_7_">
	<path id="XMLID_8_" d="M327.374,156.521c-2.925-4.269-72.659-104.544-162.371-104.544C75.275,51.977,5.55,152.253,2.625,156.522
		c-3.5,5.109-3.5,11.845,0,16.955c2.925,4.268,72.65,104.546,162.378,104.546c89.712,0,159.446-100.277,162.371-104.545
		C330.875,168.368,330.875,161.631,327.374,156.521z M165.003,248.023c-60.285,0-113.439-60.364-131.273-83.037
		c17.804-22.695,70.818-83.009,131.273-83.009c60.26,0,113.408,60.338,131.257,83.022
		C278.403,187.693,225.259,248.023,165.003,248.023z"/>
	<path id="XMLID_11_" d="M165.003,123.345c-23.015,0-41.67,18.627-41.67,41.654c0,23.028,18.655,41.655,41.67,41.655
		c23,0,41.669-18.627,41.669-41.655C206.672,141.972,188.003,123.345,165.003,123.345z"/>
</g>
<g>
</g>
<g>
</g>
<g>
</g>
<g>
</g>
<g>
</g>
<g>
</g>
<g>
</g>
<g>
</g>
<g>
</g>
<g>
</g>
<g>
</g>
<g>
</g>
<g>
</g>
<g>
</g>
<g>
</g>
</svg>
