<?xml version="1.0" encoding="iso-8859-1"?>
<!-- Generator: Adobe Illustrator 19.0.0, SVG Export Plug-In . SVG Version: 6.00 Build 0)  -->
<svg version="1.1" id="Capa_1" xmlns="http://www.w3.org/2000/svg" xmlns:xlink="http://www.w3.org/1999/xlink" x="0px" y="0px"
	 viewBox="0 0 512 512" style="enable-background:new 0 0 512 512;" xml:space="preserve">
<g>
	<g>
		<path d="M336.023,277.284l-72.131-92.882c-1.895-2.439-4.81-3.866-7.898-3.866s-6.004,1.427-7.898,3.866l-72.131,92.882
			c-1.886,2.429-2.55,5.589-1.8,8.571c0.749,2.981,2.828,5.453,5.638,6.701l72.131,32.048c1.291,0.574,2.675,0.861,4.059,0.861
			c1.384,0,2.768-0.287,4.061-0.861l72.131-32.048c2.81-1.248,4.889-3.72,5.638-6.701
			C338.573,282.873,337.909,279.712,336.023,277.284z M245.919,300.047l-46.326-20.582l46.326-59.654V300.047z M265.919,300.113
			v-80.494l46.475,59.844L265.919,300.113z"/>
	</g>
</g>
<g>
	<g>
		<path d="M217.979,28.006H75.998v-18c0-5.522-4.478-10-10-10H10c-5.522,0-10,4.478-10,10v55.998c0,5.522,4.478,10,10,10h17.999
			v76.998c0,5.522,4.478,10,10,10s10-4.478,10-10V76.005h17.999c5.522,0,10-4.478,10-10v-18h141.981c5.522,0,10-4.478,10-10
			S223.501,28.006,217.979,28.006z M55.998,56.006H19.999V20.006h35.999V56.006z"/>
	</g>
</g>
<g>
	<g>
		<path d="M502,0.007h-55.998c-5.522,0-10,4.478-10,10v18H293.659c-5.522,0-10,4.478-10,10s4.478,10,10,10h142.343v18
			c0,5.522,4.478,10,10,10h17.999v76.998c0,5.522,4.478,10,10,10s10-4.478,10-10V76.005H502c5.522,0,10-4.478,10-10V10.007
			C512,4.484,507.522,0.007,502,0.007z M492.001,56.006h-35.999V20.006h35.999V56.006z"/>
	</g>
</g>
<g>
	<g>
		<path d="M502,435.995h-18v-83.998c0-5.522-4.478-10-10-10c-5.522,0-10,4.478-10,10v83.998h-18c-5.522,0-10,4.478-10,10v18H293.659
			c-5.522,0-10,4.478-10,10c0,5.522,4.478,10,10,10h142.343v18c0,5.522,4.478,10,10,10H502c5.522,0,10-4.478,10-10v-55.998
			C512,440.472,507.522,435.995,502,435.995z M492.001,491.994h-35.999v-35.999h35.999V491.994z"/>
	</g>
</g>
<g>
	<g>
		<path d="M217.979,463.994H75.998v-18c0-5.522-4.478-10-10-10H47.999v-83.998c0-5.522-4.478-10-10-10s-10,4.478-10,10v83.998H10
			c-5.522,0-10,4.478-10,10v55.998c0,5.522,4.478,10,10,10h55.998c5.522,0,10-4.478,10-10v-17.999h141.981c5.522,0,10-4.478,10-10
			S223.502,463.994,217.979,463.994z M55.998,491.994H19.999v-35.999h35.999V491.994z"/>
	</g>
</g>
<g>
	<g>
		<path d="M263.062,466.924c-1.859-1.861-4.439-2.93-7.069-2.93c-2.63,0-5.21,1.069-7.07,2.93c-1.86,1.861-2.93,4.44-2.93,7.07
			c0,2.63,1.069,5.21,2.93,7.069c1.86,1.86,4.44,2.931,7.07,2.931c2.63,0,5.21-1.07,7.069-2.931c1.86-1.859,2.931-4.439,2.931-7.069
			C265.993,471.364,264.923,468.784,263.062,466.924z"/>
	</g>
</g>
<g>
	<g>
		<path d="M263.062,30.936c-1.859-1.86-4.439-2.93-7.069-2.93c-2.63,0-5.21,1.069-7.07,2.93c-1.86,1.861-2.93,4.44-2.93,7.07
			c0,2.63,1.069,5.21,2.93,7.069c1.86,1.861,4.44,2.931,7.07,2.931c2.63,0,5.21-1.07,7.069-2.931
			c1.86-1.859,2.931-4.439,2.931-7.069C265.993,35.376,264.923,32.796,263.062,30.936z"/>
	</g>
</g>
<g>
	<g>
		<path d="M510.685,251.068c-25.1-44.279-61.488-81.451-105.231-107.498c-45.059-26.83-96.741-41.013-149.461-41.013
			c-52.72,0-104.402,14.183-149.461,41.013C62.789,169.617,26.4,206.789,1.301,251.068c-1.734,3.06-1.734,6.804,0,9.863
			c25.099,44.28,61.488,81.452,105.231,107.498c45.059,26.83,96.741,41.013,149.461,41.013c52.72,0,104.402-14.183,149.461-41.013
			c43.743-26.047,80.132-63.219,105.231-107.498C512.419,257.871,512.419,254.127,510.685,251.068z M255.993,389.442
			c-96.083,0-185.38-50.985-234.431-133.442c49.051-82.458,138.347-133.442,234.431-133.442S441.373,173.542,490.424,256
			C441.373,338.458,352.076,389.442,255.993,389.442z"/>
	</g>
</g>
<g>
	<g>
		<path d="M255.993,138.003c-65.063,0-117.997,52.934-117.997,117.997s52.934,117.997,117.997,117.997S373.99,321.063,373.99,256
			S321.056,138.003,255.993,138.003z M255.993,353.997c-54.036,0-97.997-43.962-97.997-97.997s43.962-97.997,97.997-97.997
			c54.035,0,97.997,43.962,97.997,97.997S310.029,353.997,255.993,353.997z"/>
	</g>
</g>
<g>
	<g>
		<path d="M468.056,248.93c-1.859-1.86-4.439-2.93-7.069-2.93s-5.21,1.069-7.07,2.93s-2.93,4.44-2.93,7.07
			c0,2.63,1.069,5.21,2.93,7.069c1.86,1.861,4.44,2.931,7.07,2.931s5.21-1.07,7.069-2.931c1.86-1.859,2.931-4.439,2.931-7.069
			C470.987,253.37,469.917,250.79,468.056,248.93z"/>
	</g>
</g>
<g>
	<g>
		<path d="M435.127,248.93c-1.87-1.86-4.439-2.93-7.07-2.93c-2.64,0-5.21,1.069-7.079,2.93c-1.86,1.86-2.921,4.44-2.921,7.07
			c0,2.63,1.061,5.21,2.921,7.069c1.869,1.861,4.449,2.931,7.079,2.931c2.631,0,5.2-1.07,7.07-2.931
			c1.86-1.859,2.93-4.439,2.93-7.069C438.057,253.37,436.988,250.79,435.127,248.93z"/>
	</g>
</g>
<g>
	<g>
		<path d="M403.149,248.93c-1.86-1.86-4.44-2.93-7.07-2.93c-2.63,0-5.21,1.069-7.07,2.93c-1.859,1.86-2.93,4.44-2.93,7.07
			c0,2.63,1.07,5.21,2.93,7.069c1.86,1.861,4.44,2.931,7.07,2.931c2.63,0,5.21-1.07,7.07-2.931c1.859-1.859,2.93-4.439,2.93-7.069
			C406.079,253.359,405.009,250.79,403.149,248.93z"/>
	</g>
</g>
<g>
	<g>
		<path d="M124.066,248.93c-1.859-1.86-4.439-2.93-7.069-2.93c-2.63,0-5.21,1.069-7.07,2.93s-2.93,4.44-2.93,7.07
			c0,2.63,1.069,5.21,2.93,7.069c1.86,1.861,4.44,2.931,7.07,2.931c2.63,0,5.21-1.07,7.069-2.931
			c1.86-1.859,2.931-4.439,2.931-7.069C126.997,253.37,125.927,250.79,124.066,248.93z"/>
	</g>
</g>
<g>
	<g>
		<path d="M90.078,248.93c-1.86-1.86-4.44-2.93-7.07-2.93c-2.64,0-5.21,1.069-7.07,2.93c-1.87,1.86-2.93,4.44-2.93,7.07
			c0,2.63,1.06,5.21,2.93,7.069c1.86,1.861,4.44,2.931,7.07,2.931c2.63,0,5.2-1.07,7.07-2.931c1.859-1.859,2.93-4.439,2.93-7.069
			C93.007,253.37,91.938,250.79,90.078,248.93z"/>
	</g>
</g>
<g>
	<g>
		<path d="M57.067,248.93c-1.859-1.861-4.439-2.93-7.069-2.93c-2.63,0-5.21,1.069-7.07,2.93c-1.86,1.861-2.93,4.44-2.93,7.07
			c0,2.64,1.069,5.21,2.93,7.069c1.86,1.86,4.44,2.931,7.07,2.931c2.63,0,5.21-1.07,7.069-2.931c1.86-1.859,2.931-4.439,2.931-7.069
			C59.998,253.37,58.928,250.79,57.067,248.93z"/>
	</g>
</g>
<g>
</g>
<g>
</g>
<g>
</g>
<g>
</g>
<g>
</g>
<g>
</g>
<g>
</g>
<g>
</g>
<g>
</g>
<g>
</g>
<g>
</g>
<g>
</g>
<g>
</g>
<g>
</g>
<g>
</g>
</svg>
